<?xml version="1.0" encoding="utf-8"?>
<!-- Generator: Adobe Illustrator 24.0.1, SVG Export Plug-In . SVG Version: 6.00 Build 0)  -->
<svg version="1.1" id="Layer_1" xmlns="http://www.w3.org/2000/svg" xmlns:xlink="http://www.w3.org/1999/xlink" x="0px" y="0px"
	 viewBox="0 0 810 230.1" style="enable-background:new 0 0 810 230.1;" xml:space="preserve">
<style type="text/css">
	.st0{fill:#00836C;}
	.st1{fill:#FFFFFF;}
	.st2{enable-background:new    ;}
	.st3{fill:#69706F;}
</style>
<g>
	<g>
		<polygon class="st0" points="51.7,63.1 141,11.1 230.3,63.1 230.3,167 141,219 51.7,167 		"/>
		<polygon class="st1" points="149.3,128.9 149.6,78.5 131.1,78.4 131.1,107.6 99.5,107.6 99.5,128.9 		"/>
		
			<rect x="162.3" y="109" transform="matrix(6.389308e-03 -1 1 6.389308e-03 51.1371 291.6304)" class="st1" width="20.1" height="22.1"/>
		
			<rect x="128.8" y="140.9" transform="matrix(6.388925e-03 -1 1 6.388925e-03 -10.9468 289.5144)" class="st1" width="22.9" height="18.7"/>
	</g>
	<g>
		<g class="st2">
			<path d="M307.8,95.4c-1.8,3.3-4.6,5.9-8.4,7.9c-3.8,2-8.4,3-14,3h-10.3v24.5h-16.6V62.5h27c5.5,0,10.1,0.9,13.8,2.8
				c3.8,1.9,6.6,4.5,8.5,7.8c1.9,3.3,2.8,7.1,2.8,11.4C310.5,88.5,309.6,92.1,307.8,95.4z M291.3,90.8c1.6-1.5,2.3-3.6,2.3-6.3
				c0-2.7-0.8-4.8-2.3-6.3c-1.6-1.5-3.9-2.2-7.1-2.2h-9.1v17.1h9.1C287.3,93.1,289.7,92.3,291.3,90.8z"/>
			<path d="M343.1,78.5c2.9-1.7,6.2-2.6,9.7-2.6v17.6h-4.6c-4.2,0-7.3,0.9-9.3,2.7c-2.1,1.8-3.1,4.9-3.1,9.4v25.2h-16.6V76.5h16.6
				v9.1C337.8,82.6,340.2,80.3,343.1,78.5z"/>
			<path d="M371.2,128.2c-4.3-2.3-7.6-5.5-10-9.7c-2.4-4.2-3.7-9.2-3.7-14.8c0-5.6,1.2-10.5,3.7-14.8c2.5-4.3,5.8-7.5,10.1-9.8
				c4.3-2.3,9.1-3.4,14.4-3.4c5.3,0,10.1,1.1,14.4,3.4c4.3,2.3,7.7,5.5,10.1,9.8c2.5,4.3,3.7,9.2,3.7,14.8c0,5.6-1.3,10.5-3.7,14.8
				c-2.5,4.3-5.9,7.5-10.2,9.8c-4.3,2.3-9.1,3.4-14.5,3.4C380.3,131.6,375.5,130.5,371.2,128.2z M393.7,113.7
				c2.2-2.3,3.4-5.7,3.4-10c0-4.3-1.1-7.7-3.3-10c-2.2-2.3-4.9-3.5-8-3.5c-3.2,0-5.9,1.2-8.1,3.5c-2.1,2.3-3.2,5.7-3.2,10.1
				c0,4.3,1.1,7.7,3.2,10c2.1,2.3,4.8,3.5,7.9,3.5C388.8,117.2,391.5,116.1,393.7,113.7z"/>
			<path d="M500.3,62.5v68.4h-16.6v-41l-15.3,41h-13.4l-15.4-41.1v41.1h-16.6V62.5h19.7l19.2,47.3l19-47.3H500.3z"/>
			<path d="M563.2,107.7h-37.7c0.3,3.4,1.3,6,3.3,7.7c1.9,1.8,4.3,2.7,7.1,2.7c4.2,0,7-1.8,8.7-5.3h17.7c-0.9,3.6-2.5,6.8-4.9,9.6
				c-2.4,2.9-5.3,5.1-8.9,6.7c-3.6,1.6-7.6,2.4-12,2.4c-5.3,0-10.1-1.1-14.2-3.4c-4.2-2.3-7.4-5.5-9.7-9.7
				c-2.3-4.2-3.5-9.2-3.5-14.8c0-5.6,1.2-10.6,3.5-14.8c2.3-4.2,5.5-7.5,9.7-9.7c4.2-2.3,8.9-3.4,14.3-3.4c5.3,0,9.9,1.1,14,3.3
				c4.1,2.2,7.3,5.4,9.6,9.4c2.3,4.1,3.5,8.9,3.5,14.3C563.5,104.4,563.4,106,563.2,107.7z M546.4,98.4c0-2.9-1-5.1-2.9-6.8
				c-1.9-1.7-4.4-2.5-7.3-2.5c-2.8,0-5.1,0.8-7.1,2.4c-1.9,1.6-3.1,3.9-3.6,6.9H546.4z"/>
			<path d="M572.1,88.9c2.1-4.2,5-7.5,8.6-9.7c3.6-2.3,7.7-3.4,12.2-3.4c3.6,0,6.8,0.7,9.8,2.2c3,1.5,5.3,3.5,7,6V58.8h16.6v72.1
				h-16.6v-7.8c-1.6,2.6-3.8,4.7-6.7,6.2c-2.9,1.6-6.2,2.3-10.1,2.3c-4.5,0-8.5-1.2-12.2-3.5c-3.6-2.3-6.5-5.6-8.6-9.8
				c-2.1-4.3-3.2-9.2-3.2-14.8C568.9,98,570,93.1,572.1,88.9z M606.2,93.9c-2.3-2.4-5.1-3.6-8.4-3.6c-3.3,0-6.1,1.2-8.4,3.6
				c-2.3,2.4-3.5,5.6-3.5,9.8c0,4.2,1.2,7.4,3.5,9.9c2.3,2.4,5.1,3.7,8.4,3.7c3.3,0,6.1-1.2,8.4-3.6c2.3-2.4,3.5-5.7,3.5-9.8
				C609.6,99.5,608.5,96.3,606.2,93.9z"/>
			<path d="M673.2,130.9L659,105.1h-4v25.8h-16.6V62.5h27.9c5.4,0,10,0.9,13.8,2.8c3.8,1.9,6.6,4.5,8.5,7.7c1.9,3.3,2.8,6.9,2.8,11
				c0,4.5-1.3,8.6-3.8,12.2c-2.6,3.6-6.3,6.1-11.3,7.6l15.8,27.1H673.2z M655,93.3h10.3c3.1,0,5.3-0.7,6.9-2.2
				c1.5-1.5,2.3-3.6,2.3-6.3c0-2.6-0.8-4.6-2.3-6.1c-1.5-1.5-3.8-2.2-6.9-2.2H655V93.3z"/>
			<path d="M734,130.9l-10.4-15.1l-8.8,15.1h-18l17.9-27.7l-18.4-26.6H715l10.4,15l8.8-15h18L734,103.9l18.7,27H734z"/>
		</g>
		<g class="st2">
			<path class="st3" d="M270.9,155.7c-1.4,1.3-3.4,2-6.2,2h-4.6v10H257v-23.9h7.7c2.7,0,4.7,0.7,6.2,2s2.1,3,2.1,5
				C273,152.7,272.3,154.3,270.9,155.7z M268.6,153.9c0.8-0.8,1.2-1.8,1.2-3.2c0-2.9-1.7-4.4-5.1-4.4h-4.6v8.8h4.6
				C266.4,155.1,267.7,154.7,268.6,153.9z"/>
			<path class="st3" d="M295.3,143.7v23.9h-3.1v-10.8H280v10.8h-3.1v-23.9h3.1v10.5h12.2v-10.5H295.3z"/>
			<path class="st3" d="M314.7,162.3h-10.4l-1.9,5.3h-3.3l8.6-23.8h3.6l8.6,23.8h-3.3L314.7,162.3z M313.8,159.7l-4.3-12.1
				l-4.3,12.1H313.8z"/>
			<path class="st3" d="M336.2,167.6l-5.7-9.8h-3.8v9.8h-3.1v-23.9h7.7c1.8,0,3.3,0.3,4.6,0.9c1.2,0.6,2.2,1.5,2.8,2.5
				c0.6,1.1,0.9,2.3,0.9,3.6c0,1.6-0.5,3.1-1.4,4.4c-0.9,1.3-2.4,2.1-4.3,2.5l6,10H336.2z M326.8,155.3h4.6c1.7,0,3-0.4,3.8-1.3
				c0.8-0.8,1.3-1.9,1.3-3.3c0-1.4-0.4-2.5-1.3-3.3c-0.8-0.8-2.1-1.2-3.8-1.2h-4.6V155.3z"/>
			<path class="st3" d="M368.7,143.9v23.7h-3.1v-17.7l-7.9,17.7h-2.2l-7.9-17.7v17.7h-3.1v-23.7h3.4l8.8,19.6l8.8-19.6H368.7z"/>
			<path class="st3" d="M388.1,162.3h-10.4l-1.9,5.3h-3.3l8.6-23.8h3.6l8.6,23.8h-3.3L388.1,162.3z M387.2,159.7l-4.3-12.1
				l-4.3,12.1H387.2z"/>
			<path class="st3" d="M397.5,149.3c1.1-1.9,2.5-3.3,4.3-4.4c1.8-1.1,3.8-1.6,6.1-1.6c2.6,0,4.9,0.6,6.8,1.9s3.4,3,4.3,5.3h-3.7
				c-0.7-1.4-1.6-2.5-2.9-3.3c-1.2-0.8-2.7-1.2-4.5-1.2c-1.7,0-3.2,0.4-4.5,1.2c-1.3,0.8-2.4,1.9-3.1,3.3c-0.8,1.4-1.1,3.1-1.1,5
				c0,1.9,0.4,3.6,1.1,5c0.8,1.4,1.8,2.5,3.1,3.3c1.3,0.8,2.8,1.2,4.5,1.2c1.7,0,3.2-0.4,4.5-1.1s2.2-1.9,2.9-3.3h3.7
				c-0.9,2.3-2.3,4.1-4.3,5.3s-4.2,1.9-6.8,1.9c-2.2,0-4.2-0.5-6.1-1.6c-1.8-1-3.3-2.5-4.3-4.3c-1.1-1.9-1.6-3.9-1.6-6.3
				C396,153.3,396.5,151.2,397.5,149.3z"/>
			<path class="st3" d="M440.3,143.7l-7.8,14.9v9h-3.1v-9l-7.8-14.9h3.5l5.9,12.1l5.9-12.1H440.3z"/>
		</g>
	</g>
</g>
</svg>
