<?xml version="1.0" encoding="UTF-8"?>
<!DOCTYPE svg PUBLIC "-//W3C//DTD SVG 1.1//EN" "http://www.w3.org/Graphics/SVG/1.1/DTD/svg11.dtd">
<!-- Creator: CorelDRAW 2020 (64-Bit) -->
<svg xmlns="http://www.w3.org/2000/svg" xml:space="preserve" width="10.1016in" height="3.62763in" version="1.1" style="shape-rendering:geometricPrecision; text-rendering:geometricPrecision; image-rendering:optimizeQuality; fill-rule:evenodd; clip-rule:evenodd"
viewBox="0 0 10101.55 3627.63"
 xmlns:xlink="http://www.w3.org/1999/xlink"
 xmlns:xodm="http://www.corel.com/coreldraw/odm/2003">
 <defs>
  <style type="text/css">
   <![CDATA[
    .fil0 {fill:#00C85C}
    .fil2 {fill:#009EEC;fill-rule:nonzero}
    .fil1 {fill:#36454F;fill-rule:nonzero}
   ]]>
  </style>
 </defs>
 <g id="Layer_x0020_1">
  <metadata id="CorelCorpID_0Corel-Layer"/>
  <g id="_2055078880016">
   <path className="fil0" d="M6956.64 3313.52c110.06,-219.31 370.64,-411.45 45.54,-677.81 292.75,-285.04 141.35,-439.94 -8.31,-609.06 274.75,-281.96 265.61,-537.51 24.37,-719.79 17.52,-11.23 35.86,-22.68 55.16,-34.44 51.78,52.41 120.53,98.08 198.29,125.29 -114.51,215.41 289.94,383.04 439.94,212.23 -164.17,7.87 -88.17,-164.28 -164.58,-263.57 -42.87,-55.71 -175.6,-70.81 -240.61,2.2 -7.22,8.11 -13.62,16.18 -19.3,24.21 -64.7,-32.44 -124.78,-71.81 -180.94,-117.06 185.6,-69.3 418.63,-83.07 712.77,77.22 -4.21,3.51 -8.25,7.29 -12.06,11.38 -214.01,229.96 232.28,443.78 395.51,265.95 -162.55,4.44 -83.89,-163.8 -157.45,-263.26 -35.79,-48.39 -139.03,-68.02 -208.73,-26.3 -119.31,-117.96 -359.3,-184.47 -613.64,-156.12 118.53,-49.85 270.71,-113.54 353.39,-211.4 39.11,-46.29 43.92,-50.65 86.78,-84.3 57.82,-45.4 226.79,-39.61 317.01,-11.61 -1.29,2.59 -2.5,5.25 -3.62,7.95 -121.86,293.75 376.43,340.34 468.52,113.98 -152.5,61.29 -137.19,-126.27 -241.94,-195 -52.77,-34.62 -163.2,-14.55 -212.34,55.26 -69.06,-38.22 -176.69,-43.81 -312.21,-23.39 69.83,-72.42 138.16,-135.19 186.65,-163.94l0.31 0.46c144.08,208.26 392.49,-102.3 280.67,-261.58 -25.31,127.81 -144.54,36.32 -236.31,76.06 -45.65,19.76 -80,99.96 -56.38,162.51 -58.43,22.21 -121.32,70.05 -190.47,153.85 14.25,-123.94 -6.56,-197.31 -49.79,-239.79 0.5,-2.08 0.98,-4.18 1.38,-6.31 59.17,-312.46 -438.11,-256.11 -481.93,-15.69 136.73,-91.2 160.12,95.52 276.72,141.36 54.91,21.59 149.39,-13.93 189.08,-82.69 30.7,49.93 51.95,151.7 16.51,233.3 -92.31,212.49 -323.39,247.86 -472.69,336.53l38.77 -99.44 0 0c308.15,-78.6 46.68,-505.33 -189.7,-443.3 140.49,85.3 -18.8,185.5 -10.99,310.54 3.87,61.97 83.56,136.87 167.39,136.87 -21.02,42.24 -38.72,97.73 -65.87,115.44 -49.76,29.98 -95.26,56.68 -137.47,80.85 -1.83,1.05 -3.61,2.12 -5.43,3.18 -1.82,-1.06 -3.59,-2.13 -5.43,-3.18 -42.21,-24.17 -87.71,-50.87 -137.47,-80.85 -27.15,-17.7 -44.86,-73.2 -65.87,-115.44 83.83,-0 163.52,-74.9 167.39,-136.87 7.8,-125.04 -151.48,-225.24 -10.99,-310.54 -236.37,-62.03 -497.85,364.7 -189.7,443.3l0 0 38.77 99.44c-149.3,-88.67 -380.38,-124.04 -472.69,-336.53 -35.44,-81.59 -14.2,-183.37 16.51,-233.3 39.7,68.76 134.17,104.28 189.07,82.69 116.6,-45.83 140,-232.56 276.72,-141.35 -43.81,-240.42 -541.09,-296.78 -481.93,15.69 0.4,2.13 0.87,4.22 1.38,6.31 -43.23,42.48 -64.04,115.85 -49.79,239.79 -69.15,-83.8 -132.04,-131.64 -190.46,-153.85 23.62,-62.55 -10.74,-142.75 -56.38,-162.51 -91.78,-39.74 -211.01,51.76 -236.32,-76.06 -111.83,159.28 136.59,469.84 280.67,261.59l0.31 -0.46c48.49,28.75 116.81,91.52 186.65,163.94 -135.53,-20.41 -243.16,-14.83 -312.21,23.39 -49.13,-69.81 -159.57,-89.88 -212.34,-55.26 -104.75,68.73 -89.44,256.29 -241.94,194.99 92.08,226.37 590.37,179.77 468.51,-113.98 -1.12,-2.7 -2.33,-5.35 -3.62,-7.95 90.22,-28.01 259.19,-33.8 317.01,11.6 42.85,33.65 47.67,38.02 86.78,84.3 82.68,97.86 234.86,161.56 353.39,211.4 -254.34,-28.35 -494.32,38.16 -613.64,156.12 -69.7,-41.72 -172.93,-22.09 -208.73,26.3 -73.57,99.46 5.1,267.7 -157.45,263.26 163.22,177.83 609.52,-36 395.51,-265.95 -3.81,-4.09 -7.84,-7.87 -12.06,-11.38 294.14,-160.29 527.17,-146.52 712.77,-77.22 -56.16,45.25 -116.24,84.62 -180.94,117.06 -5.7,-8.02 -12.08,-16.09 -19.3,-24.2 -65.01,-73.01 -197.74,-57.91 -240.62,-2.2 -76.4,99.29 -0.41,271.44 -164.57,263.57 150,170.81 554.45,3.18 439.94,-212.23 77.76,-27.21 146.52,-72.87 198.29,-125.29 19.3,11.76 37.64,23.21 55.16,34.44 -241.23,182.28 -250.38,437.83 24.37,719.79 -149.67,169.13 -301.07,324.05 -8.24,609.13 -340.59,281.9 -27.47,532.94 81.49,677.75zm-98.76 -1459.01c62.49,-8.52 118.25,-11.54 168.14,-9.76 14.84,-22.08 27.89,-43.13 39.14,-63.28l-243.82 16.02c10.78,18.24 22.96,37.21 36.54,57.01zm131.88 41.52c-33,-3.15 -66.76,-3.25 -101.58,0.92 12.98,17.55 26.94,35.72 41.89,54.58 2.83,3.57 5.68,7.11 8.56,10.65 2.88,-3.54 5.73,-7.08 8.56,-10.65 15.2,-19.19 29.39,-37.67 42.57,-55.5zm-151.54 -450.4c58.16,3.21 145.79,-8.33 186.04,-14.73 -23.94,-22.91 -52.48,-46.09 -85.63,-70.11 -40.26,29.18 -73.72,57.12 -100.41,84.84zm222.31 24.05c-36.3,11.98 -169.55,30.04 -257.48,17.79 -13.63,19.04 -24.07,38.2 -31.33,57.83 109.3,4.74 218.61,-0.17 327.92,-14.39 -9.41,-20.7 -22.44,-40.98 -39.1,-61.22zm53.09 103.34c-116.91,17.68 -234.41,23.03 -352.56,14.94 -3.11,23.25 -2.1,47.39 3.03,72.9 135.63,-15.97 261.1,-23.95 353.09,-27.89 1.75,-20.74 0.56,-40.63 -3.57,-59.96zm-4.58 105.39c-115.21,3.81 -222.37,12.29 -333,25.13 6.49,18.38 14.85,37.5 25.12,57.52l289.45 -30.58c7.83,-18.04 13.96,-35.36 18.43,-52.07zm-248.57 493.13c54.04,9.45 117.17,8.89 154.85,-2.06 -20.48,-28.56 -45.96,-58.03 -76.69,-88.57 -31.46,31.27 -57.43,61.43 -78.16,90.63zm184.3 44.53c-45.03,17.01 -137.85,18.73 -206.92,-9.53 -11.46,19.71 -20.45,39 -27.06,57.92 73.64,8.55 188.62,11.62 249.69,-15.66 -4.47,-10.78 -9.7,-21.69 -15.71,-32.73zm31.65 85.06c-44.48,18.02 -201.06,19.83 -276.95,7.84 -2.27,14.44 -3.12,28.68 -2.57,42.74 77.23,8.93 220.23,12.44 283.48,-16.35 -0.43,-11.29 -1.74,-22.7 -3.95,-34.23zm-1.29 90.13c-40.33,18.7 -196.14,16.68 -272.11,3.79 5.01,20.42 12.98,40.52 23.79,60.39 71.16,8.01 173.54,6.04 234.16,-21.44 6.17,-14.1 10.9,-28.34 14.17,-42.73zm-54.57 109.62c-46.86,8.54 -108.11,11.31 -157.4,8.18 20.66,25.48 45.9,50.7 75.47,75.88 32.73,-27.86 60.17,-55.8 81.93,-84.06zm-141.06 253.65c41.93,9.31 82.14,5.96 113.48,-6.27 -13.28,-16.83 -28.91,-33.02 -47.04,-48.39 -2.5,-2.12 -4.85,-4.19 -7.31,-6.3 -2.45,2.1 -4.81,4.18 -7.31,6.3 -20.37,17.26 -37.58,35.58 -51.82,54.66zm137.78 29.66c-31.88,17.62 -95.72,25.79 -159.06,3.27 -10.09,18.3 -17.76,37.11 -23.15,56.22 66.26,7.37 143.16,4.09 200.15,-21.56 -4.88,-12.85 -10.85,-25.52 -17.94,-37.94zm32.04 91.69c-38.44,18.28 -151.36,22.56 -222.54,10.8 -1.73,16.13 -1.96,32.36 -0.78,48.56 69.2,6.39 165.99,-2.35 226.14,-28.77 -0.35,-10.22 -1.28,-20.43 -2.81,-30.59zm-2.26 93.76c-38.95,17 -143.94,21.23 -214.12,10.93 4.19,17.96 10.06,35.75 17.48,53.18 66.08,8.08 129.33,5.27 185.26,-21.64 4.82,-14 8.63,-28.19 11.38,-42.46zm-45.11 113.09c-39.83,7.09 -80.57,8.79 -121.98,6.41 16.42,25.36 36.23,49.42 58.99,71.54 24.67,-23.97 45.84,-50.22 62.99,-77.94zm-64.69 -2727.95c47.54,0 86.07,38.54 86.07,86.07 0,47.54 -38.54,86.07 -86.07,86.07 -47.54,0 -86.07,-38.54 -86.07,-86.07 0,-47.54 38.54,-86.07 86.07,-86.07zm1322.03 267.79c-36.64,0 -66.35,29.7 -66.35,66.35 0,36.64 29.7,66.35 66.35,66.35 36.64,0 66.35,-29.7 66.35,-66.35 0,-36.64 -29.7,-66.35 -66.35,-66.35zm-47.78 1089.77c-36.64,0 -66.35,29.7 -66.35,66.35 0,36.64 29.7,66.35 66.35,66.35 36.64,0 66.35,-29.7 66.35,-66.35 0,-36.64 -29.7,-66.35 -66.35,-66.35zm-734.85 -964.64c-36.64,0 -66.35,29.7 -66.35,66.35 0,36.64 29.7,66.35 66.35,66.35 36.64,0 66.35,-29.7 66.35,-66.35 0,-36.64 -29.7,-66.35 -66.35,-66.35zm82.64 -560.55c126.33,-144.87 485.12,17.09 319.43,204.48 -50.94,57.61 -155.38,46.09 -189.25,2.39 -60.37,-77.89 -1.06,-213.51 -130.17,-206.87zm858.62 948.05c115.56,166.89 -143.26,492.22 -292.15,274 -45.77,-67.08 -6.91,-171.02 46.62,-194.37 95.39,-41.61 218.85,54.26 245.53,-79.64zm-522.45 94.09c97.98,-156.45 -150.78,-441.13 -276.88,-236.66 -38.76,62.86 0.9,155.65 50.5,174.61 88.4,33.8 196.54,-58.47 226.38,62.05zm167.98 813.56c114.09,-173.83 -159.22,-500.37 -306.13,-273.13 -45.16,69.85 -2.72,175.3 52.69,197.84 98.74,40.18 222.72,-61.13 253.44,75.3zm-632 -1959.37c-137.35,-188.81 -588.8,-31.25 -408.37,213.22 55.46,75.15 183.07,72.4 228.73,23.14 81.38,-87.78 24.14,-258.22 179.64,-236.37zm-1813.47 539.09c36.64,0 66.35,29.7 66.35,66.35 0,36.64 -29.7,66.35 -66.35,66.35 -36.64,0 -66.35,-29.7 -66.35,-66.35 0,-36.64 29.7,-66.35 66.35,-66.35zm47.78 1089.77c36.64,0 66.35,29.7 66.35,66.35 0,36.64 -29.7,66.35 -66.35,66.35 -36.64,0 -66.35,-29.7 -66.35,-66.35 0,-36.64 29.7,-66.35 66.35,-66.35zm734.85 -964.64c36.64,0 66.35,29.7 66.35,66.35 0,36.64 -29.7,66.35 -66.35,66.35 -36.64,0 -66.35,-29.7 -66.35,-66.35 0,-36.64 29.7,-66.35 66.35,-66.35zm-82.64 -560.55c-126.33,-144.87 -485.12,17.09 -319.43,204.48 50.94,57.61 155.38,46.09 189.25,2.39 60.37,-77.89 1.06,-213.51 130.17,-206.87zm-858.62 948.05c-115.56,166.89 143.26,492.22 292.15,274 45.77,-67.07 6.91,-171.02 -46.62,-194.37 -95.39,-41.61 -218.85,54.26 -245.53,-79.63zm522.45 94.09c-97.98,-156.45 150.78,-441.13 276.89,-236.66 38.76,62.85 -0.9,155.64 -50.5,174.61 -88.4,33.8 -196.54,-58.46 -226.39,62.05zm-167.98 813.56c-114.09,-173.84 159.23,-500.37 306.13,-273.13 45.16,69.85 2.72,175.3 -52.69,197.84 -98.74,40.19 -222.72,-61.14 -253.45,75.3zm632 -1959.37c137.35,-188.81 588.8,-31.25 408.37,213.22 -55.47,75.15 -183.07,72.4 -228.73,23.15 -81.39,-87.79 -24.14,-258.22 -179.65,-236.37z"/>
   <g>
    <path className="fil1" d="M651.81 1975.54c90.28,0 175.14,16.55 254.58,49.65 79.44,33.1 148.35,79.14 206.74,138.13 58.38,58.98 104.42,128.49 138.12,208.54 33.7,80.05 50.56,166.41 50.56,259.1 0,93.89 -16.85,180.85 -50.56,260.9 -33.7,80.05 -79.74,149.26 -138.12,207.64 -58.38,58.38 -127.29,104.42 -206.74,138.13 -79.44,33.7 -164.31,50.56 -254.58,50.56 -91.48,0 -176.65,-16.85 -255.49,-50.56 -78.84,-33.7 -147.76,-79.74 -206.74,-138.13 -58.98,-58.38 -105.32,-127.59 -139.03,-207.64 -33.7,-80.05 -50.56,-167.01 -50.56,-260.9 0,-92.69 16.85,-179.05 50.56,-259.1 33.7,-80.05 80.05,-149.56 139.03,-208.54 58.98,-58.98 127.89,-105.02 206.74,-138.13 78.84,-33.1 164,-49.65 255.49,-49.65zm0 122.78c-72.22,0 -140.23,13.54 -204.03,40.62 -63.8,27.09 -119.47,64.7 -167.02,112.85 -47.55,48.15 -84.86,104.42 -111.94,168.82 -27.08,64.4 -40.63,134.51 -40.63,210.35 0,75.83 13.54,146.25 40.63,211.25 27.08,65 64.4,121.57 111.94,169.72 47.55,48.15 103.22,85.76 167.02,112.85 63.8,27.08 131.8,40.63 204.03,40.63 72.22,0 139.93,-13.54 203.12,-40.63 63.2,-27.08 118.57,-64.7 166.11,-112.85 47.54,-48.15 84.86,-104.72 111.94,-169.72 27.09,-65 40.63,-135.41 40.63,-211.25 0,-75.83 -13.54,-145.95 -40.63,-210.35 -27.08,-64.4 -64.4,-120.67 -111.94,-168.82 -47.55,-48.15 -102.92,-85.76 -166.11,-112.85 -63.19,-27.08 -130.9,-40.62 -203.12,-40.62zm874.96 260l117.36 0 0 175.14c14.44,-30.09 33.7,-57.18 57.78,-81.25 24.07,-24.07 50.86,-44.83 80.35,-62.29 29.49,-17.45 61.09,-30.69 94.8,-39.72 33.7,-9.03 67.41,-13.54 101.11,-13.54 61.39,0 118.26,12.04 170.62,36.11 52.36,24.07 98.1,57.48 137.22,100.2 39.12,42.73 69.81,92.99 92.08,150.76 22.27,57.78 33.4,120.97 33.4,189.59 0,67.41 -11.13,130 -33.4,187.78 -22.27,57.78 -52.96,108.03 -92.08,150.76 -39.12,42.73 -85.46,76.13 -139.03,100.21 -53.57,24.07 -111.04,36.11 -172.43,36.11 -68.61,0 -132.41,-16.85 -191.39,-50.56 -58.98,-33.7 -104.12,-77.64 -135.42,-131.8l0 521.8 -120.97 0 0 -1269.3zm113.75 455c0,58.98 9.33,111.34 27.99,157.08 18.66,45.74 43.03,83.66 73.13,113.75 30.09,30.09 64.4,52.96 102.92,68.61 38.52,15.65 77.04,23.47 115.56,23.47 45.74,0 88.47,-9.03 128.19,-27.08 39.72,-18.06 74.63,-43.33 104.72,-75.83 30.09,-32.5 53.57,-71.02 70.42,-115.56 16.85,-44.54 25.28,-92.69 25.28,-144.44 0,-52.96 -8.43,-101.71 -25.28,-146.25 -16.85,-44.54 -40.32,-83.06 -70.42,-115.56 -30.09,-32.5 -64.7,-57.78 -103.82,-75.83 -39.12,-18.06 -81.55,-27.08 -127.29,-27.08 -39.72,0 -78.84,7.83 -117.36,23.47 -38.52,15.65 -72.83,38.82 -102.92,69.52 -30.09,30.69 -54.47,68.61 -73.13,113.75 -18.66,45.14 -27.99,97.8 -27.99,157.99zm1420.24 449.58c-15.65,7.22 -34.61,13.24 -56.87,18.06 -22.27,4.81 -47.25,7.22 -74.93,7.22 -78.24,0 -141.43,-23.47 -189.58,-70.41 -48.15,-46.94 -72.22,-113.75 -72.22,-200.42l0 -554.31 -142.64 0 0 -102.92 144.44 0 0 -227.5 119.17 -37.92 0 265.42 234.72 0 0 102.92 -234.72 0 0 541.67c0,57.78 14.44,100.81 43.33,129.1 28.89,28.29 68.61,42.43 119.17,42.43 14.44,0 31.59,-1.8 51.46,-5.41 19.86,-3.61 39.42,-10.23 58.68,-19.86l0 111.94zm255.66 -1281.94c24.07,0 44.54,8.43 61.39,25.28 16.85,16.85 25.28,37.91 25.28,63.19 0,24.07 -8.43,44.84 -25.28,62.29 -16.85,17.45 -37.31,26.18 -61.39,26.18 -24.07,0 -44.84,-8.73 -62.29,-26.18 -17.46,-17.45 -26.18,-38.22 -26.18,-62.29 0,-25.28 8.72,-46.34 26.18,-63.19 17.45,-16.85 38.22,-25.28 62.29,-25.28zm-61.39 377.36l120.97 0 0 908.19 -120.97 0 0 -908.19zm531.91 0l0 178.75c27.69,-58.98 68.61,-107.13 122.78,-144.44 54.17,-37.31 120.97,-55.97 200.42,-55.97 79.44,0 146.25,20.16 200.42,60.49 54.17,40.32 93.29,94.19 117.36,161.59 37.31,-69.81 83.96,-124.28 139.93,-163.4 55.97,-39.12 124.28,-58.68 204.93,-58.68 51.76,0 98.7,9.03 140.83,27.08 42.13,18.06 78.24,43.33 108.33,75.83 30.09,32.5 53.26,71.32 69.51,116.46 16.25,45.14 24.37,95.39 24.37,150.76l0 559.72 -120.97 0 0 -554.31c0,-81.85 -22.87,-146.25 -68.61,-193.19 -45.74,-46.94 -104.72,-70.42 -176.94,-70.42 -48.15,0 -90.58,9.93 -127.29,29.79 -36.71,19.86 -67.71,46.04 -92.98,78.54 -25.28,32.5 -44.24,69.21 -56.87,110.14 -12.64,40.93 -18.96,82.45 -18.96,124.58l0 474.86 -120.97 0 0 -554.31c0,-81.85 -22.87,-146.25 -68.61,-193.19 -45.74,-46.94 -104.72,-70.42 -176.94,-70.42 -48.15,0 -90.58,9.93 -127.29,29.79 -36.71,19.86 -67.71,46.04 -92.98,78.54 -25.28,32.5 -44.24,69.21 -56.88,110.14 -12.64,40.93 -18.96,82.45 -18.96,124.58l0 474.86 -120.97 0 0 -908.19 117.36 0zm1591.76 74.03c38.52,-27.69 84.86,-50.56 139.03,-68.61 54.17,-18.06 110.74,-27.08 169.72,-27.08 51.76,0 99.31,7.52 142.64,22.57 43.33,15.05 80.65,36.71 111.94,65 31.3,28.29 55.67,63.19 73.12,104.72 17.46,41.53 26.18,89.38 26.18,143.54l0 594.03 -111.94 0 0 -178.75c-32.5,62.59 -76.74,111.64 -132.71,147.15 -55.97,35.51 -119.46,53.26 -190.48,53.26 -40.93,0 -79.15,-6.32 -114.65,-18.96 -35.51,-12.64 -66.2,-30.69 -92.08,-54.17 -25.88,-23.47 -46.34,-51.16 -61.39,-83.06 -15.05,-31.9 -22.57,-66.5 -22.57,-103.82 0,-77.04 28.28,-138.43 84.86,-184.17 56.57,-45.74 139.03,-76.44 247.36,-92.08l274.44 -41.53 0 -39.72c0,-74.63 -22.87,-130.3 -68.61,-167.01 -45.74,-36.71 -104.12,-55.07 -175.14,-55.07 -57.78,0 -113.45,11.13 -167.01,33.41 -53.57,22.27 -97.8,47.24 -132.71,74.93l0 -124.58zm243.75 751.11c43.33,0 83.36,-8.73 120.07,-26.18 36.71,-17.45 68.61,-40.02 95.69,-67.71 27.09,-27.69 48.15,-59.88 63.2,-96.6 15.05,-36.71 22.57,-73.72 22.57,-111.04l0 -74.03 -256.39 34.3c-156.48,20.46 -234.72,80.05 -234.72,178.75 0,49.35 18.06,88.77 54.17,118.26 36.11,29.49 81.25,44.24 135.41,44.24zm685.38 -1186.25l120.97 0 0 1068.89c0,33.7 6.92,60.49 20.76,80.35 13.84,19.86 37.62,29.79 71.32,29.79 9.63,0 18.96,-0.6 27.99,-1.8 9.03,-1.2 18.96,-3.61 29.79,-7.22l0 110.14c-19.26,7.22 -42.73,10.83 -70.42,10.83 -57.78,0 -105.63,-15.95 -143.54,-47.85 -37.92,-31.9 -56.88,-83.96 -56.88,-156.18l0 -1086.94z"/>
    <path className="fil2" d="M8118.06 3001.1l-133.61 0 -297.92 -476.67 0 742.08 -315.97 0 0 -1289.17 285.28 0 395.42 644.58 395.42 -644.58 285.28 0 0 1289.17 -315.97 0 0 -742.08 -297.92 476.67zm838.77 265.42l0 -1290.97 482.09 0c191.39,0 349.67,61.99 474.86,185.97 125.19,123.98 187.78,276.85 187.78,458.61 0,182.96 -62.29,336.44 -186.87,460.42 -124.59,123.98 -283.17,185.97 -475.76,185.97l-482.09 0zm315.97 -274.44l137.22 0c104.72,0 191.69,-34.61 260.9,-103.82 69.21,-69.21 103.82,-158.59 103.82,-268.13 0,-108.33 -34.61,-197.11 -103.82,-266.32 -69.21,-69.21 -155.58,-103.82 -259.1,-103.82l-139.03 0 0 742.08z"/>
   </g>
  </g>
 </g>
</svg>
