<svg width="588" height="436" viewBox="0 0 588 436" fill="none" xmlns="http://www.w3.org/2000/svg">
<g clip-path="url(#clip0_2525_23012)">
<path d="M275.536 179.318H426.771C427.155 179.318 427.467 179.628 427.467 180.01V267.4C427.467 267.782 427.155 268.091 426.771 268.091H275.536V179.318Z" fill="#E6E6E6"/>
<path d="M426.593 268.564L275.337 179.989L275.735 178.648L426.992 267.223C427.364 267.333 427.577 267.721 427.467 268.092C427.357 268.462 426.966 268.673 426.593 268.564Z" fill="white"/>
<path d="M275.735 268.762L275.337 267.421L426.593 178.846C426.966 178.737 427.357 178.948 427.467 179.319C427.577 179.689 427.364 180.078 426.992 180.187L275.735 268.762Z" fill="white"/>
<path d="M409.595 91.8975H293.238C291.42 91.8975 289.945 93.3626 289.945 95.17V95.17C289.945 96.9773 291.42 98.4425 293.238 98.4425H409.595C411.413 98.4425 412.888 96.9773 412.888 95.17C412.888 93.3626 411.413 91.8975 409.595 91.8975Z" fill="#E6E6E6"/>
<path d="M425.237 112.326H277.597C275.778 112.326 274.304 113.791 274.304 115.599V115.599C274.304 117.406 275.778 118.871 277.597 118.871H425.237C427.056 118.871 428.53 117.406 428.53 115.599C428.53 113.791 427.056 112.326 425.237 112.326Z" fill="#E6E6E6"/>
<path d="M425.237 132.756H277.597C275.778 132.756 274.304 134.221 274.304 136.028C274.304 137.836 275.778 139.301 277.597 139.301H425.237C427.056 139.301 428.53 137.836 428.53 136.028C428.53 134.221 427.056 132.756 425.237 132.756Z" fill="#1993D8"/>
<path d="M565.24 201.722C565.228 226.986 549.163 249.488 525.171 257.843C524.661 258.025 524.152 258.19 523.637 258.35C492.169 268.347 458.505 251.101 448.445 219.829C438.385 188.558 455.739 155.103 487.207 145.106C518.674 135.108 552.339 152.355 562.399 183.626C564.281 189.476 565.239 195.581 565.24 201.722Z" fill="#E6E6E6"/>
<path d="M425.211 140.614C424.97 143.369 427.022 145.797 429.795 146.036C430.091 146.062 430.388 146.061 430.683 146.035L438.05 162.255L443.023 154.439L435.266 140.234C434.831 137.487 432.237 135.611 429.473 136.043C427.16 136.405 425.398 138.295 425.211 140.614Z" fill="#FFB6B6"/>
<path d="M497.802 201.7C497.694 201.22 497.558 200.748 497.392 200.285C496.336 197.304 494.186 194.829 491.372 193.356C491.305 193.318 491.233 193.279 491.167 193.246L457.517 176.278L454.532 170.494L442.47 147.142L439.512 148.017L432.523 150.081L432.362 150.125L443.948 188.871L446.607 190.896L476.718 213.78L477.698 214.529C482.7 218.323 489.743 217.911 494.263 213.56C494.714 213.13 495.13 212.667 495.509 212.173C497.805 209.196 498.645 205.356 497.802 201.7Z" fill="#1993D8"/>
<path d="M516.509 244.254L516.332 237.87L515.822 219.356C517.666 207.506 518.973 206.191 510.079 198.089C509.392 197.943 508.799 197.515 508.445 196.912C507.637 195.271 509.581 192.487 507.903 188.199L494.661 188.953L491.371 193.356L478.135 211.078C477.616 211.954 477.143 212.856 476.717 213.78C471.051 226.01 478.733 232.509 479.331 233.627L482.997 245.102L485.019 256.23L485.672 257.777L487.517 258.448C499.282 262.099 511.892 262.065 523.637 258.349C521.66 253.462 519.276 248.747 516.509 244.254Z" fill="#1993D8"/>
<path d="M542.157 289.262C543.29 286.736 542.148 283.775 539.606 282.649C539.335 282.529 539.054 282.433 538.765 282.362L537.132 264.641L529.863 270.415L532.529 286.358C532.037 289.096 533.872 291.711 536.627 292.199C538.932 292.607 541.218 291.393 542.157 289.262Z" fill="#FFB6B6"/>
<path d="M516.831 202.366C514.91 199.479 511.877 197.506 508.446 196.912C507.711 196.78 506.966 196.714 506.219 196.714C503.731 196.714 501.298 197.444 499.225 198.811C498.567 199.242 497.953 199.736 497.392 200.286C492.359 205.13 492.23 213.112 497.105 218.113L497.109 218.118L516.332 237.87L523.338 245.069L525.171 257.843L527.99 277.497L531.069 277.629L538.358 277.948L538.524 277.954L539.737 250.413L540.302 237.573L516.831 202.366Z" fill="#1993D8"/>
<path d="M490.561 157.989C485.88 167.159 488.938 177.781 497.625 183.366C507.019 189.406 519.216 188.084 523.162 176.346C527.555 163.275 523.946 157.668 516.098 150.969C506.9 143.119 495.62 148.081 490.561 157.989Z" fill="#2F2E41"/>
<path d="M513.607 178.417C508.642 184.885 499.34 186.128 492.832 181.194C486.332 176.266 485.074 167.038 490.021 160.569L490.15 160.402C495.26 154.046 504.587 153.01 510.982 158.088C517.233 163.05 518.393 172.046 513.603 178.414L513.607 178.417Z" fill="#FFB6B6"/>
<path d="M486.024 156.505C488.433 158.783 491.37 160.436 494.574 161.319C495.216 160.581 495.978 159.954 496.827 159.463C496.42 160.304 496.142 161.2 496 162.122C497.429 165.07 503.266 167.188 508.845 169.355L516.234 156.396L506.454 150.889C498.595 145.49 489.344 147.794 486.024 156.505Z" fill="#2F2E41"/>
<path d="M521.808 150.985C523.257 150.455 524.878 150.69 526.114 151.61C527.305 152.51 528.267 153.673 528.925 155.008C530.122 157.168 530.981 159.496 531.474 161.912C531.896 164.002 531.825 166.529 529.937 167.62C528.363 168.53 526.111 167.957 524.664 166.742C523.323 165.468 522.305 163.895 521.695 162.153C520.989 160.486 520.321 158.758 519.066 157.374L520.37 157.979C519.958 156.735 519.766 155.43 519.803 154.122C519.863 152.797 520.626 151.603 521.808 150.985Z" fill="#2F2E41"/>
<path d="M504.892 152.684L515.384 158.592C521.292 161.919 523.368 169.375 520.02 175.247C515.167 183.756 504.599 187.202 495.617 183.206L505.205 174.794L492.198 181.38L489.421 179.816C503.37 177.296 506.061 166.422 504.892 152.684Z" fill="#2F2E41"/>
<path d="M524.712 163.068C526.478 165.111 529.243 165.906 531.737 166.969C540.673 170.865 547.098 178.894 548.906 188.424C549.595 192.248 549.505 196.206 550.594 199.933C551.677 203.66 554.358 207.318 558.205 207.964C560.809 208.406 563.419 207.407 565.868 206.421C567.215 205.883 568.562 205.343 569.909 204.801C568.504 201.297 567.101 197.794 565.701 194.291C567.952 197.597 570.57 200.641 573.505 203.366C578.332 201.432 583.164 199.498 587.999 197.563C576.102 197.608 578.132 186.131 575.471 174.616C574.008 168.288 561.55 164.004 559.108 157.983C555.293 148.545 544.5 143.967 535.003 147.758C530.91 149.392 527.538 152.422 525.492 156.305C523.049 157.272 522.978 161.051 524.712 163.068Z" fill="#2F2E41"/>
<path d="M179.121 273.93C176.892 271.125 177.373 267.056 180.195 264.84C180.469 264.626 180.759 264.434 181.064 264.265L177.666 232.186L186.364 229.07L190.119 267.201C191.628 270.439 190.21 274.281 186.951 275.781C184.224 277.036 180.987 276.271 179.121 273.93Z" fill="#FFB6B6"/>
<path d="M174.469 156.318C174.469 156.318 188.589 163.165 188.635 171.213C188.681 179.262 189.85 186.541 188.745 189.656C187.64 192.77 191.553 215.406 189.722 217.648C187.89 219.889 191.664 221.037 189.681 224.873C187.698 228.709 186.82 229.431 187.546 230.304C188.273 231.176 189.341 247.807 189.341 247.807L177.706 249.253L165.329 195.576L174.469 156.318Z" fill="#3F3D56"/>
<path d="M107.323 277.189C109.969 274.768 110.14 270.674 107.704 268.044C107.468 267.789 107.212 267.554 106.938 267.34L115.383 236.194L107.288 231.755L97.5306 268.82C95.5261 271.782 96.317 275.797 99.2972 277.789C101.791 279.456 105.109 279.208 107.323 277.189Z" fill="#FFB6B6"/>
<path d="M130.577 161.776C130.577 161.776 115.547 166.325 114.225 174.265C112.903 182.206 110.593 189.211 111.19 192.46C111.787 195.708 104.332 217.448 105.785 219.949C107.238 222.449 103.329 222.991 104.679 227.09C106.028 231.189 106.781 232.04 105.925 232.787C105.069 233.535 101.376 249.79 101.376 249.79L112.636 253.041L133.374 201.975L130.577 161.776Z" fill="#3F3D56"/>
<path d="M188.294 416.533L198.319 416.532L203.088 378.107L188.293 378.108L188.294 416.533Z" fill="#FFB6B6"/>
<path d="M201.654 417.43V410.677L199.019 410.837L188.291 411.468L185.808 411.62L183.91 434.238L183.809 435.451H190.926L191.155 434.247L192.189 428.773L194.858 434.247L195.443 435.451H214.314C216.651 435.436 218.541 433.555 218.551 431.232C219.347 427.535 203.654 419.544 201.654 417.43Z" fill="#2F2E41"/>
<path d="M70.8525 405.69L79.5716 410.606L102.801 379.524L89.9328 372.27L70.8525 405.69Z" fill="#FFB6B6"/>
<path d="M82.0316 413.017L85.3787 407.148L83.023 405.994L73.3715 401.287L71.1344 400.192L60.1441 416.184L57.5596 419.939L60.483 421.59L63.7454 423.434L68.1686 418.247L67.6772 425.649L83.0908 434.347H83.0993L84.0907 434.903C86.1291 436.048 88.7149 435.335 89.8697 433.312C92.395 430.482 82.718 415.847 82.0316 413.017Z" fill="#2F2E41"/>
<path d="M138.546 227.914C116.328 228.707 108.52 318.728 115.305 320.361L83.6426 379.001L128.709 399.076L158.341 296.828L163.28 334.456L156.695 394.168L185.825 401.169L205.974 399.739C200.739 328.562 187.667 253.493 176.833 224.455L138.546 227.914Z" fill="#2F2E41"/>
<path d="M128.347 234.226L128.201 234.772C142.402 242.624 152.099 240.944 167.623 236.192L178.956 233.825C181.429 230.619 179.414 227.484 176.673 224.431L183.467 168.9C183.421 161.706 177.515 155.91 170.276 155.956C169.978 155.957 169.681 155.969 169.384 155.991L159.179 148.479L144.651 148.977L134.933 159.644L129.127 161.706L124.616 163.304C123.704 164.12 122.709 165.061 121.755 166.098L128.89 208.298L131.925 220.916C127.857 225.526 125.615 230.026 128.347 234.226Z" fill="#3F3D56"/>
<path d="M45.9265 428.482C35.3549 427.231 25.9163 421.305 20.2397 412.354C16.5949 406.48 14.7142 399.504 12.8954 392.758C12.3658 390.794 11.8185 388.764 11.239 386.807C9.89841 382.432 11.3711 377.686 14.9586 374.821C18.4267 371.932 23.3146 371.431 27.3034 373.555L27.7289 373.779L28.4747 390.436C29.5797 388.205 32.0046 383.164 33.9258 378.13L34.0869 377.709L34.455 377.973C38.3174 380.73 41.815 383.96 44.8653 387.586C55.7667 400.756 60.2866 418.025 57.2244 434.805L57.1316 435.299L45.9265 428.482Z" fill="#F2F2F2"/>
<path d="M3.73655e-06 435.177C-0.00135372 435.63 0.367324 435.999 0.82347 436H587.172C587.629 436 588 435.631 588 435.177C588 434.722 587.629 434.354 587.172 434.354H0.828405C0.372238 434.352 0.00136119 434.719 1.06979e-05 435.172L3.73655e-06 435.177Z" fill="#CCCCCC"/>
<path d="M172.577 139.005L172.591 139.001C174.173 138.585 175.116 136.973 174.698 135.401L170.477 119.51C169.724 116.663 168.402 113.994 166.59 111.665C163.047 107.12 157.875 104.11 152.154 103.261C149.201 102.826 146.19 102.99 143.302 103.742C131.489 106.822 128.189 110.704 127.522 130.575C126.856 150.445 131.75 146.489 131.75 146.489C131.851 146.872 132.029 147.231 132.273 147.545C132.75 148.155 133.446 148.559 134.216 148.672C134.611 148.73 135.013 148.708 135.399 148.607C150.152 147.098 165.093 145.724 172.579 139.004L172.577 139.005Z" fill="#2F2E41"/>
<path d="M137.89 122.229C135.725 130.914 141.055 139.698 149.794 141.85C153.982 142.881 158.411 142.22 162.11 140.011C165.807 137.819 168.468 134.247 169.499 130.093C171.656 121.406 166.32 112.626 157.579 110.482C153.401 109.457 148.985 110.115 145.293 112.313C141.591 114.502 138.925 118.073 137.89 122.229Z" fill="#FFB6B6"/>
<path d="M175.891 119.473C175.295 117.221 174.25 115.111 172.817 113.269C170.781 108.226 167.588 104.149 161.401 106.624C159.081 106.283 156.715 106.41 154.445 106.996L151.24 107.82C151.204 107.829 151.168 107.838 151.132 107.848C141.814 110.298 136.259 119.792 138.725 129.052L138.809 129.371L145.587 127.622L146.193 120.607L148.36 126.907L151.861 126.006L152.166 122.467L153.26 125.643C159.898 128.206 167.592 125.663 175.973 119.793L175.891 119.473Z" fill="#2F2E41"/>
<path d="M160.342 141.678C160.584 142.164 160.684 142.708 160.631 143.248C160.606 143.524 160.542 143.795 160.441 144.053C160.354 144.273 160.242 144.482 160.105 144.676C159.702 145.248 159.106 145.659 158.425 145.835C158.383 145.845 158.34 145.855 158.297 145.864C158.254 145.874 158.211 145.882 158.168 145.889C158.124 145.897 158.08 145.903 158.036 145.908C157.992 145.914 157.948 145.918 157.903 145.922L155.385 146.118L150.208 139.959L151.918 146.396L140.474 147.307L133.219 119.993L151.557 115.276L151.243 115.918C150.206 118.065 149.785 120.456 150.027 122.826C150.284 125.224 150.952 127.56 152.003 129.733C153.049 131.936 154.305 134.035 155.754 136C157.028 137.744 158.401 139.413 159.868 140.999C160.057 141.203 160.216 141.431 160.342 141.678Z" fill="#2F2E41"/>
</g>
<defs>
<clipPath id="clip0_2525_23012">
<rect width="588" height="436" fill="white"/>
</clipPath>
</defs>
</svg>
